<!DOCTYPE svg PUBLIC "-//W3C//DTD SVG 20010904//EN" "http://www.w3.org/TR/2001/REC-SVG-20010904/DTD/svg10.dtd">
<svg version="1.0" xmlns="http://www.w3.org/2000/svg" width="1200px" height="1200px" viewBox="0 0 12000 12000" preserveAspectRatio="xMidYMid meet">
<g id="layer101" fill="#010101" stroke="none">
<path d="M5780 11140 c-137 -14 -225 -30 -392 -71 -295 -73 -468 -137 -748 -280 -265 -135 -412 -235 -634 -429 -516 -453 -880 -1068 -1055 -1779 -85 -345 -105 -565 -98 -1091 5 -405 14 -500 76 -805 34 -167 60 -234 102 -259 18 -10 76 -24 137 -32 59 -8 113 -16 122 -19 13 -4 15 -43 17 -282 1 -313 16 -467 63 -658 37 -150 101 -348 165 -507 7 -17 -14 -18 -343 -18 l-351 0 -20 -26 c-45 -58 -19 -204 113 -630 318 -1030 799 -1950 1374 -2629 123 -144 399 -416 527 -518 264 -211 522 -354 779 -431 132 -40 248 -56 412 -56 274 0 512 77 842 274 200 120 364 249 560 440 201 197 318 329 477 541 294 393 461 674 733 1235 207 428 399 955 546 1505 60 221 60 251 2 283 -27 15 -69 17 -363 17 -182 0 -335 3 -338 7 -4 4 11 53 33 110 76 195 131 403 169 633 14 86 18 174 19 409 l1 300 54 13 c30 6 86 12 124 13 81 0 124 21 150 70 29 57 79 336 111 620 21 188 29 641 15 826 -46 591 -161 1010 -406 1481 -266 512 -637 925 -1105 1233 -392 257 -892 444 -1323 496 -151 18 -438 25 -547 14z"/>
</g>
<g id="layer102" fill="#2d251e" stroke="none">
<path d="M5755 11125 c-66 -8 -131 -16 -145 -19 -14 -4 -36 -8 -50 -11 -62 -12 -82 -16 -200 -45 -69 -17 -143 -38 -165 -46 -22 -9 -41 -15 -42 -15 -2 1 -4 1 -5 0 -2 0 -13 -2 -26 -5 -13 -2 -43 -13 -67 -24 -24 -11 -51 -20 -59 -20 -8 0 -17 -4 -21 -9 -3 -5 -29 -17 -58 -27 -28 -9 -77 -29 -107 -45 -30 -15 -89 -44 -130 -64 -41 -20 -102 -51 -135 -70 -33 -19 -69 -39 -80 -45 -11 -5 -33 -19 -50 -30 -16 -11 -38 -23 -47 -26 -10 -4 -18 -10 -18 -15 0 -5 -7 -9 -15 -9 -8 0 -15 -4 -15 -10 0 -5 -5 -10 -11 -10 -6 0 -17 -6 -24 -12 -22 -20 -37 -32 -75 -58 -19 -13 -40 -29 -46 -35 -6 -5 -27 -23 -47 -38 -101 -79 -332 -304 -417 -406 -25 -29 -52 -61 -60 -69 -8 -8 -45 -56 -82 -106 -37 -50 -72 -96 -78 -103 -5 -7 -10 -15 -10 -18 0 -4 -11 -21 -25 -39 -14 -18 -25 -38 -25 -44 0 -7 -4 -12 -10 -12 -5 0 -10 -7 -10 -15 0 -8 -4 -15 -10 -15 -5 0 -10 -6 -10 -14 0 -8 -6 -21 -13 -28 -14 -14 -30 -42 -71 -123 -14 -27 -31 -61 -40 -75 -22 -39 -83 -170 -136 -295 -4 -11 -15 -36 -24 -57 -9 -20 -16 -40 -16 -46 0 -5 -7 -23 -15 -38 -8 -16 -15 -36 -15 -45 0 -9 -7 -30 -15 -45 -8 -16 -15 -36 -15 -45 0 -9 -6 -32 -14 -50 -8 -19 -16 -47 -19 -64 -3 -16 -17 -73 -30 -125 -47 -177 -66 -296 -88 -545 -11 -134 -7 -860 5 -940 4 -22 11 -71 17 -110 17 -122 20 -137 45 -268 24 -121 31 -147 58 -207 24 -54 58 -70 185 -86 58 -8 112 -16 121 -19 13 -4 15 -36 15 -227 0 -377 24 -609 84 -798 5 -14 16 -52 26 -85 10 -33 24 -74 31 -92 8 -17 14 -40 14 -51 0 -12 5 -24 10 -27 6 -3 10 -13 10 -22 0 -8 6 -29 14 -46 7 -18 23 -56 34 -85 l21 -52 -353 0 -352 0 -23 -26 c-19 -22 -22 -36 -20 -87 2 -34 11 -93 20 -132 34 -137 59 -231 72 -270 8 -22 23 -71 35 -110 44 -142 113 -351 128 -382 7 -17 14 -38 14 -46 0 -9 4 -18 9 -22 5 -3 13 -20 16 -38 7 -30 14 -49 50 -131 8 -19 15 -39 15 -45 0 -6 4 -19 10 -29 8 -15 24 -51 50 -117 8 -19 21 -50 71 -163 11 -26 27 -60 34 -77 13 -31 123 -259 137 -285 5 -8 32 -62 62 -120 29 -58 67 -130 85 -160 17 -30 38 -68 47 -85 8 -16 24 -43 34 -60 11 -16 26 -42 32 -57 7 -16 16 -28 20 -28 4 0 8 -6 8 -14 0 -8 6 -21 12 -28 19 -20 38 -50 44 -70 4 -10 10 -18 15 -18 5 0 9 -5 9 -12 0 -6 11 -26 25 -44 14 -18 25 -37 25 -42 0 -6 3 -12 8 -14 4 -1 25 -30 47 -63 33 -52 91 -131 125 -172 6 -7 10 -17 10 -23 0 -5 3 -10 8 -10 4 0 18 -16 31 -35 13 -19 31 -43 40 -54 9 -11 25 -31 35 -46 11 -14 27 -35 37 -46 9 -11 32 -39 51 -61 18 -23 49 -60 68 -82 55 -65 370 -378 424 -422 27 -21 57 -46 67 -55 10 -8 30 -24 44 -35 25 -17 55 -41 80 -62 6 -5 39 -27 75 -50 36 -23 70 -45 75 -49 6 -4 30 -19 55 -32 25 -13 52 -29 60 -36 16 -12 136 -70 215 -104 28 -12 58 -26 67 -31 9 -5 31 -12 49 -15 17 -3 47 -12 65 -20 19 -8 34 -12 34 -10 0 3 11 0 26 -5 115 -44 461 -50 609 -10 44 11 91 23 104 26 41 8 143 51 264 111 110 54 130 65 145 80 7 7 20 13 28 13 8 0 14 4 14 9 0 5 12 14 28 20 28 11 63 31 72 42 3 3 12 8 20 11 14 5 179 124 190 137 3 3 32 28 65 56 159 132 348 321 480 479 22 27 48 58 59 70 10 11 37 46 59 76 22 30 46 59 54 63 7 4 13 15 13 22 0 8 4 15 8 15 4 0 15 12 24 27 9 16 24 37 32 48 9 11 29 38 46 60 16 22 33 45 37 50 5 6 14 22 21 36 8 14 27 41 43 60 16 19 29 39 29 44 0 6 11 23 25 39 14 16 25 35 25 43 0 7 5 13 10 13 6 0 10 7 10 15 0 8 4 15 8 15 5 0 19 21 33 46 27 51 32 60 71 120 15 23 34 57 43 75 9 19 28 55 43 81 44 77 285 565 328 665 8 18 20 48 28 65 8 18 24 54 35 79 12 25 21 50 21 55 0 6 11 34 25 63 14 29 28 66 32 82 3 16 10 32 14 35 5 3 9 11 9 19 0 8 5 26 11 42 34 82 153 432 186 543 9 30 20 67 25 81 5 14 22 74 38 135 80 292 81 307 41 351 -27 29 -138 36 -437 29 -126 -3 -243 -2 -260 3 -32 9 -33 21 -7 81 8 19 19 44 23 55 4 11 12 32 18 47 27 67 87 258 96 308 3 14 14 68 25 120 43 209 54 350 48 626 l-4 240 71 12 c39 6 101 13 139 15 62 4 70 7 101 41 36 37 41 55 72 226 4 19 8 44 11 55 16 80 46 316 57 445 24 276 14 783 -18 1000 -3 19 -10 67 -15 105 -6 39 -13 81 -16 95 -3 14 -10 49 -15 78 -5 30 -12 62 -15 72 -6 18 -12 43 -21 90 -15 72 -83 287 -110 347 -8 17 -14 36 -14 42 0 6 -4 19 -9 29 -5 9 -17 35 -26 57 -33 77 -58 131 -112 240 -83 165 -96 189 -110 203 -7 7 -13 20 -13 28 0 8 -4 14 -10 14 -5 0 -10 5 -10 11 0 6 -11 25 -25 43 -14 18 -25 38 -25 44 0 7 -4 12 -10 12 -5 0 -10 6 -10 14 0 8 -4 16 -8 18 -4 2 -28 32 -52 68 -51 73 -52 76 -81 110 -12 14 -33 41 -48 60 -14 19 -37 48 -51 65 -40 49 -300 307 -359 355 -29 25 -61 52 -71 60 -9 8 -30 25 -46 37 -16 12 -49 36 -74 55 -45 34 -149 104 -182 123 -9 6 -41 23 -70 39 -29 15 -60 33 -68 40 -40 30 -370 186 -395 186 -7 0 -16 4 -19 9 -3 4 -34 16 -68 26 -35 9 -68 21 -73 26 -6 4 -25 10 -41 13 -17 3 -47 13 -67 21 -21 8 -37 13 -37 10 0 -2 -12 0 -27 6 -28 11 -48 16 -93 25 -14 3 -38 9 -55 14 -16 5 -46 12 -65 15 -19 3 -46 8 -60 10 -62 13 -81 15 -178 25 -165 17 -387 19 -517 5z m510 -96 c399 -41 903 -220 1273 -453 342 -216 656 -513 890 -843 452 -640 662 -1377 639 -2253 -4 -129 -11 -280 -17 -335 -30 -284 -89 -612 -114 -631 -9 -6 -55 -14 -103 -17 -101 -7 -203 -26 -218 -39 -6 -6 -10 -131 -10 -336 0 -350 -5 -397 -61 -651 -34 -151 -60 -235 -127 -412 -74 -197 -75 -203 -41 -226 26 -16 57 -18 381 -18 194 -1 355 -4 359 -8 10 -10 -9 -91 -81 -342 -142 -493 -302 -914 -520 -1366 -343 -714 -681 -1209 -1129 -1654 -215 -214 -359 -330 -562 -453 -239 -144 -395 -209 -607 -253 -87 -18 -123 -20 -242 -15 -217 9 -374 51 -600 161 -945 459 -1874 1829 -2374 3501 -56 187 -101 367 -101 402 l0 22 349 0 c356 0 405 5 416 39 3 9 -24 94 -60 188 -165 435 -215 741 -200 1213 4 107 2 191 -3 198 -11 16 -65 29 -200 47 -56 7 -109 18 -116 24 -25 21 -74 243 -113 511 -21 144 -30 764 -13 955 53 626 245 1185 580 1685 209 311 534 641 825 837 190 128 486 279 710 361 116 42 411 120 555 146 189 35 392 39 635 15z"/>
<path d="M5520 10830 c-236 -49 -386 -89 -496 -131 -242 -94 -576 -288 -794 -463 -128 -103 -418 -401 -515 -531 -256 -340 -443 -728 -579 -1197 -89 -308 -111 -519 -111 -1063 0 -347 3 -428 18 -525 27 -167 67 -332 86 -352 15 -16 21 -16 81 -2 36 8 162 44 280 79 281 84 379 108 410 101 14 -3 84 -19 155 -35 72 -16 239 -52 373 -80 l243 -51 312 126 c799 323 1002 404 1020 404 19 0 361 -130 1020 -387 l348 -136 387 81 c214 45 401 82 417 82 15 0 119 -29 229 -64 291 -93 345 -108 400 -110 l50 -1 13 45 c20 66 72 321 89 430 20 135 30 686 15 865 -18 218 -80 488 -188 820 -55 169 -86 250 -148 381 -26 54 -61 128 -77 163 -90 199 -310 484 -593 766 -170 171 -282 263 -463 382 -157 103 -208 132 -277 158 -33 13 -100 41 -150 63 -345 151 -698 213 -1215 211 -184 -1 -219 -4 -340 -29z"/>
<path d="M5920 6781 c-144 -155 -402 -669 -417 -831 -5 -50 -3 -57 23 -83 58 -58 256 -134 412 -158 65 -10 99 -10 159 -1 167 26 401 126 432 186 12 21 12 36 2 78 -21 96 -246 537 -367 720 -113 171 -153 186 -244 89z"/>
<path d="M3365 6585 c-5 -2 -36 -11 -67 -20 -44 -12 -58 -20 -58 -34 0 -10 8 -22 17 -26 30 -11 140 -18 145 -9 16 28 17 64 2 78 -15 16 -20 17 -39 11z"/>
<path d="M8603 6583 c-15 -5 -17 -61 -4 -82 7 -11 23 -13 70 -8 68 7 104 22 98 40 -6 19 -140 60 -164 50z"/>
<path d="M7090 5884 c-353 -68 -594 -420 -526 -769 19 -101 89 -242 157 -318 128 -144 333 -227 525 -214 296 21 537 235 598 530 30 145 12 267 -61 417 -76 156 -206 270 -380 331 -57 21 -252 35 -313 23z"/>
<path d="M4672 5865 c-30 -7 -92 -31 -138 -54 -257 -128 -406 -425 -350 -701 44 -214 170 -380 361 -472 192 -92 376 -90 574 8 123 61 218 152 278 269 61 119 77 182 78 310 0 188 -59 330 -196 468 -64 64 -93 85 -170 121 -52 24 -118 49 -147 55 -70 14 -223 13 -290 -4z"/>
<path d="M3203 4744 c-31 -13 -5 -37 100 -92 182 -98 676 -332 697 -332 12 0 20 7 20 17 0 21 -255 360 -282 374 -11 6 -61 14 -111 19 -120 11 -408 20 -424 14z"/>
<path d="M8550 4738 c-102 -4 -208 -13 -236 -18 -47 -10 -56 -17 -100 -73 -116 -149 -234 -310 -234 -318 0 -25 37 -15 166 44 252 116 665 327 671 343 8 21 -14 34 -52 32 -16 0 -113 -5 -215 -10z"/>
<path d="M3011 4681 c-23 -14 -8 -96 54 -311 92 -320 142 -461 260 -745 175 -420 365 -814 530 -1100 59 -104 248 -383 365 -540 85 -115 291 -346 405 -454 395 -373 800 -613 1175 -697 101 -23 308 -23 415 0 527 113 1133 557 1585 1161 420 562 793 1304 1064 2117 96 289 152 499 147 556 -4 42 -228 -42 -601 -225 -319 -156 -542 -256 -615 -274 -75 -19 -157 -6 -812 132 -279 59 -336 68 -355 58 -13 -7 -126 -84 -253 -172 -249 -173 -309 -207 -368 -207 -52 0 -80 16 -376 215 -143 96 -264 175 -269 175 -5 0 -103 -20 -218 -44 -417 -89 -892 -186 -907 -186 -9 0 -146 64 -304 143 -482 239 -627 306 -769 358 -75 27 -137 49 -138 49 0 0 -7 -4 -15 -9z"/>
</g>
<g id="layer103" fill="#103347" stroke="none">
<path d="M5750 11105 c-126 -13 -189 -25 -380 -71 -444 -108 -885 -322 -1236 -602 -115 -92 -318 -291 -438 -431 -328 -380 -574 -862 -710 -1391 -89 -348 -109 -567 -103 -1105 5 -400 10 -474 51 -695 48 -264 66 -321 107 -353 19 -13 60 -24 140 -34 63 -8 122 -20 131 -26 15 -11 18 -43 22 -302 8 -477 41 -661 197 -1078 23 -59 38 -114 35 -122 -5 -13 -58 -15 -360 -15 -404 0 -376 7 -376 -89 0 -60 12 -119 52 -266 303 -1105 837 -2167 1451 -2885 117 -137 355 -373 491 -486 289 -239 618 -413 911 -480 116 -27 437 -27 550 0 186 44 354 117 575 251 162 98 250 160 360 255 363 313 666 675 971 1160 133 213 231 392 372 680 151 310 192 403 331 768 116 301 305 939 306 1028 0 19 -8 38 -21 50 -20 18 -41 19 -365 19 -263 1 -347 4 -356 13 -11 11 -7 28 15 90 97 262 138 410 179 642 19 108 22 167 24 435 1 171 3 315 3 321 1 16 130 44 202 44 119 0 136 24 177 255 60 336 82 583 82 916 -1 705 -131 1261 -422 1807 -104 196 -285 462 -418 616 -41 49 -280 284 -350 346 -159 140 -361 274 -595 396 -177 92 -267 131 -452 192 -270 91 -483 134 -741 152 -186 12 -250 11 -412 -5z m359 -46 c311 -19 588 -82 906 -206 654 -254 1182 -699 1560 -1317 434 -709 597 -1581 474 -2544 -24 -194 -74 -448 -93 -477 -15 -23 -54 -35 -116 -35 -52 0 -213 -29 -220 -40 -3 -5 -2 -68 3 -142 12 -194 2 -480 -22 -623 -40 -238 -78 -377 -165 -610 -32 -82 -58 -166 -59 -185 -2 -35 -2 -35 48 -41 28 -4 149 -6 270 -6 430 1 445 0 445 -31 0 -10 -27 -116 -60 -235 -244 -887 -619 -1726 -1068 -2387 -262 -386 -557 -723 -835 -955 -245 -204 -538 -375 -775 -454 -168 -56 -281 -74 -422 -68 -214 10 -378 55 -615 172 -319 156 -631 407 -934 750 -625 707 -1156 1736 -1475 2860 -63 223 -81 312 -66 330 11 13 69 15 367 15 351 0 393 4 393 34 0 7 -27 83 -60 170 -108 282 -165 504 -191 736 -8 70 -12 225 -12 393 l2 278 -23 9 c-12 4 -75 15 -140 23 -66 9 -128 23 -141 31 -30 20 -56 101 -90 288 -51 280 -57 350 -62 703 -7 490 17 733 108 1085 200 776 621 1422 1217 1870 237 178 614 371 912 467 225 72 620 151 701 140 20 -3 43 -1 50 4 17 11 -6 11 188 -2z"/>
<path d="M4780 5863 c-272 -24 -488 -198 -566 -458 -28 -91 -25 -288 5 -375 68 -197 224 -352 416 -413 100 -31 280 -31 380 0 196 62 356 222 418 418 18 58 22 92 21 200 -1 116 -4 138 -29 205 -59 159 -176 291 -320 360 -100 48 -223 72 -325 63z"/>
<path d="M7040 5855 c-170 -47 -319 -168 -399 -325 -56 -109 -66 -155 -66 -295 1 -115 4 -138 27 -203 78 -216 249 -370 463 -417 98 -22 242 -16 335 14 188 60 344 216 411 411 32 94 33 285 2 385 -59 186 -209 344 -392 413 -55 21 -87 26 -196 28 -94 3 -145 0 -185 -11z"/>
</g>
<g id="layer104" fill="#503421" stroke="none">
<path d="M5584 10835 c-341 -64 -586 -143 -802 -256 -195 -103 -512 -307 -512 -329 0 -6 -7 -10 -15 -10 -8 0 -22 -11 -31 -25 -9 -14 -22 -25 -29 -25 -7 0 -36 -27 -65 -60 -29 -33 -57 -60 -64 -60 -14 0 -136 -122 -136 -136 0 -6 -27 -34 -60 -63 -33 -29 -60 -59 -60 -66 0 -8 -9 -19 -19 -25 -24 -12 -146 -178 -229 -310 -139 -222 -262 -489 -363 -791 -65 -196 -123 -421 -116 -450 3 -10 1 -22 -5 -25 -5 -3 -8 -18 -7 -32 1 -15 -2 -35 -6 -45 -4 -10 -5 -31 -2 -47 4 -16 2 -32 -4 -36 -6 -3 -10 -27 -8 -53 1 -25 -2 -54 -6 -64 -4 -10 -5 -49 -1 -87 3 -38 2 -71 -2 -74 -10 -6 -10 -641 0 -651 4 -4 4 -29 1 -55 -3 -27 -2 -57 2 -67 4 -10 7 -34 6 -54 -1 -21 2 -40 8 -43 6 -4 8 -13 5 -20 -8 -20 54 -288 69 -304 16 -16 68 -4 352 81 99 30 221 64 270 76 50 13 98 27 108 32 13 7 23 7 32 -1 7 -6 28 -12 46 -14 19 -2 41 -6 49 -10 32 -12 293 -66 298 -61 3 2 10 1 16 -4 14 -11 217 -53 224 -46 3 3 11 0 18 -6 8 -6 20 -9 29 -6 8 4 17 2 21 -4 3 -5 13 -9 22 -8 10 1 24 -1 33 -5 11 -5 103 28 252 88 742 301 1085 436 1105 436 12 0 36 -7 54 -15 18 -8 179 -71 358 -139 179 -68 465 -179 635 -246 278 -109 315 -121 354 -116 24 3 49 10 56 16 6 5 14 8 17 5 7 -7 110 15 124 26 6 5 13 7 16 4 7 -7 110 15 124 26 6 5 13 7 16 4 7 -7 210 35 224 46 6 5 14 6 17 3 3 -4 14 -3 24 1 10 4 27 9 38 10 11 1 45 6 76 10 52 7 70 3 225 -48 268 -89 409 -127 449 -120 41 7 45 11 49 56 2 19 5 38 8 43 3 5 11 36 18 69 6 33 22 107 35 165 27 122 47 304 44 408 -1 40 1 75 4 79 20 20 -2 536 -29 683 -37 207 -143 584 -222 795 -59 158 -202 461 -259 549 -123 191 -300 404 -508 611 -165 165 -263 245 -440 363 -180 118 -214 138 -319 179 -50 20 -109 45 -131 56 -69 35 -255 97 -380 128 -171 42 -364 68 -587 79 -282 14 -376 12 -514 -15z"/>
<path d="M6004 6822 c-30 -10 -120 -93 -128 -120 -4 -12 -16 -27 -27 -32 -10 -6 -19 -17 -19 -25 0 -8 -11 -26 -25 -41 -14 -15 -28 -39 -32 -52 -3 -14 -14 -33 -24 -43 -10 -10 -22 -31 -25 -46 -9 -35 -65 -149 -99 -199 -14 -21 -24 -43 -21 -50 3 -7 -1 -18 -9 -24 -8 -6 -19 -28 -25 -48 -7 -20 -18 -52 -27 -70 -8 -18 -16 -45 -18 -60 -2 -15 -4 -29 -5 -32 -11 -29 -2 -88 15 -106 29 -31 87 -64 111 -64 12 0 27 -6 33 -13 12 -15 78 -38 125 -43 16 -2 35 -9 42 -15 7 -6 18 -8 24 -4 6 4 17 1 25 -5 8 -6 19 -9 25 -5 6 4 19 4 28 0 25 -11 132 -12 139 -2 3 4 12 6 20 3 9 -4 22 -1 29 5 7 6 18 8 24 4 6 -4 17 -2 24 4 7 6 28 13 47 15 50 7 109 30 154 60 22 15 52 30 66 33 42 8 97 101 69 118 -5 3 -7 12 -4 19 3 7 -2 19 -10 26 -9 7 -13 16 -10 21 3 5 -4 21 -15 35 -11 15 -18 30 -16 35 7 10 -122 269 -134 269 -4 0 -16 19 -25 43 -40 95 -46 107 -56 107 -5 0 -10 9 -10 20 0 11 -9 29 -20 40 -11 11 -20 26 -20 33 0 7 -16 31 -35 53 -19 21 -38 47 -41 57 -5 16 -90 109 -97 106 -1 -1 -11 -4 -23 -7z"/>
<path d="M3011 4666 c-9 -10 -9 -16 -1 -21 6 -4 9 -14 6 -22 -10 -26 87 -374 179 -641 76 -221 328 -811 354 -826 6 -4 9 -11 6 -16 -7 -12 182 -390 195 -390 5 0 13 -12 16 -27 10 -40 43 -103 54 -103 5 0 14 -17 19 -37 10 -38 121 -219 145 -238 7 -5 21 -27 30 -47 10 -21 33 -53 52 -73 19 -20 34 -42 34 -49 0 -7 16 -30 35 -50 19 -21 35 -43 35 -51 0 -7 18 -31 40 -54 22 -22 40 -48 40 -56 0 -8 9 -19 20 -25 11 -6 20 -17 20 -25 0 -8 9 -19 20 -25 11 -6 20 -17 20 -25 0 -8 18 -29 40 -46 22 -18 40 -37 40 -44 0 -6 25 -33 55 -59 30 -26 55 -53 55 -59 0 -16 102 -117 117 -117 7 0 36 -27 65 -60 29 -33 57 -60 63 -60 6 0 21 -14 33 -30 13 -17 28 -30 35 -30 7 0 18 -9 25 -20 7 -11 18 -20 26 -20 8 0 16 -7 20 -15 3 -8 12 -15 20 -15 7 0 16 -6 19 -14 6 -16 296 -211 329 -222 13 -4 27 -13 33 -20 27 -34 440 -192 471 -180 7 3 16 0 20 -5 3 -6 15 -9 25 -6 10 3 22 1 25 -5 3 -5 21 -8 39 -6 19 1 37 -1 41 -5 11 -11 142 -8 149 3 3 5 19 7 35 3 16 -3 37 -2 47 2 10 4 35 9 57 10 21 2 43 8 48 13 6 6 16 8 22 6 22 -8 249 77 366 137 168 86 480 294 480 320 0 5 11 14 25 19 14 5 28 17 31 25 4 8 12 15 20 15 7 0 25 16 40 35 14 19 32 35 38 35 7 0 38 29 70 65 31 35 69 70 84 77 15 7 33 25 40 40 7 15 35 47 62 70 28 24 50 48 50 54 0 7 16 24 35 38 19 15 35 32 35 39 0 7 9 18 20 25 11 7 20 16 20 21 0 5 16 26 35 47 19 21 35 43 35 50 0 6 7 14 15 18 8 3 15 10 15 15 0 6 11 22 24 36 96 104 496 763 496 818 0 10 4 17 10 17 13 0 92 158 85 170 -3 4 3 16 12 26 32 31 196 405 308 699 116 305 277 826 261 842 -3 3 -1 12 6 20 13 16 5 26 -25 29 -26 2 -231 -70 -267 -94 -14 -9 -32 -17 -40 -18 -20 -2 -640 -303 -661 -320 -9 -8 -18 -12 -21 -9 -2 3 -44 -11 -92 -31 -88 -35 -212 -58 -222 -42 -3 5 -16 8 -27 6 -12 -1 -27 1 -34 5 -7 4 -31 9 -55 11 -24 2 -51 7 -61 11 -10 4 -21 5 -24 1 -3 -3 -12 -1 -19 5 -8 6 -20 9 -29 6 -8 -4 -17 -2 -21 4 -3 5 -13 9 -22 7 -10 -1 -22 1 -28 5 -7 4 -29 9 -50 11 -22 2 -47 7 -56 11 -9 4 -21 4 -27 1 -5 -4 -13 -2 -16 4 -4 6 -14 10 -23 9 -10 -1 -24 1 -32 4 -27 12 -163 38 -168 32 -3 -3 -10 -1 -16 4 -11 9 -110 32 -124 29 -4 0 -15 2 -25 7 -10 4 -21 5 -24 1 -3 -3 -12 -1 -19 4 -6 6 -27 12 -45 14 -19 2 -42 7 -52 11 -27 11 -45 1 -294 -174 -308 -215 -354 -235 -449 -192 -22 10 -158 98 -302 195 -144 97 -270 176 -281 176 -11 0 -23 -5 -26 -10 -4 -6 -10 -8 -15 -5 -10 6 -111 -14 -126 -26 -6 -5 -13 -7 -16 -4 -7 7 -160 -25 -174 -36 -6 -5 -13 -7 -16 -4 -7 7 -110 -15 -124 -26 -6 -5 -14 -6 -17 -3 -3 4 -14 3 -24 -1 -10 -5 -21 -8 -25 -7 -10 2 -200 -37 -218 -45 -8 -3 -22 -5 -32 -4 -9 1 -19 -3 -22 -8 -4 -6 -13 -8 -21 -5 -8 3 -19 2 -26 -2 -7 -4 -30 -9 -52 -11 -21 -2 -44 -6 -50 -10 -5 -3 -28 -8 -51 -10 -22 -2 -44 -7 -49 -12 -15 -15 -50 0 -295 123 -128 64 -237 114 -242 111 -5 -3 -17 3 -27 13 -29 29 -395 200 -540 253 -75 27 -136 49 -138 49 -1 0 -8 -6 -14 -14z"/>
</g>
<g id="layer105" fill="#dd7339" stroke="none">
<path d="M5555 10816 c-239 -48 -451 -105 -560 -151 -196 -82 -449 -224 -640 -359 -178 -125 -502 -444 -636 -626 -247 -334 -431 -721 -568 -1192 -84 -287 -106 -505 -106 -1043 0 -347 3 -428 18 -524 22 -136 64 -321 78 -337 13 -15 38 -9 329 76 129 38 274 79 321 90 l86 22 179 -41 c98 -22 277 -60 396 -85 l218 -45 112 45 c62 25 196 80 298 121 573 233 904 363 924 363 22 0 115 -35 906 -342 l464 -181 126 27 c427 91 648 136 677 136 17 0 128 -31 245 -69 219 -71 361 -111 397 -111 23 0 32 25 57 160 9 47 24 123 35 170 29 132 38 244 45 520 11 437 -13 652 -112 1014 -82 299 -144 472 -260 719 -92 195 -123 249 -229 393 -243 328 -554 635 -835 824 -194 130 -224 145 -563 281 -266 108 -572 158 -1007 164 -259 4 -282 3 -395 -19z"/>
</g>
<g id="layer106" fill="#9da1a1" stroke="none">
<path d="M5750 11105 c-126 -13 -189 -25 -380 -71 -444 -108 -885 -322 -1236 -602 -115 -92 -318 -291 -438 -431 -328 -380 -574 -862 -710 -1391 -89 -348 -109 -567 -103 -1105 5 -400 10 -474 51 -695 48 -264 66 -321 107 -353 19 -13 60 -24 140 -34 63 -8 122 -20 131 -26 15 -11 18 -43 22 -302 8 -477 41 -661 197 -1078 23 -59 38 -114 35 -122 -5 -13 -58 -15 -360 -15 -404 0 -376 7 -376 -89 0 -60 12 -119 52 -266 303 -1105 837 -2167 1451 -2885 117 -137 355 -373 491 -486 289 -239 618 -413 911 -480 116 -27 437 -27 550 0 186 44 354 117 575 251 162 98 250 160 360 255 363 313 666 675 971 1160 133 213 231 392 372 680 151 310 192 403 331 768 116 301 305 939 306 1028 0 19 -8 38 -21 50 -20 18 -41 19 -365 19 -263 1 -347 4 -356 13 -11 11 -7 28 15 90 97 262 138 410 179 642 19 108 22 167 24 435 1 171 3 315 3 321 1 16 130 44 202 44 119 0 136 24 177 255 60 336 82 583 82 916 -1 705 -131 1261 -422 1807 -104 196 -285 462 -418 616 -41 49 -280 284 -350 346 -159 140 -361 274 -595 396 -177 92 -267 131 -452 192 -270 91 -483 134 -741 152 -186 12 -250 11 -412 -5z m359 -46 c311 -19 588 -82 906 -206 654 -254 1182 -699 1560 -1317 434 -709 597 -1581 474 -2544 -24 -194 -74 -448 -93 -477 -15 -23 -54 -35 -116 -35 -52 0 -213 -29 -220 -40 -3 -5 -2 -68 3 -142 12 -194 2 -480 -22 -623 -40 -238 -78 -377 -165 -610 -32 -82 -58 -166 -59 -185 l-2 -35 55 -7 c30 -4 192 -7 360 -6 168 1 315 -2 328 -6 12 -4 22 -15 22 -25 0 -9 -27 -115 -60 -234 -244 -887 -619 -1726 -1068 -2387 -262 -386 -557 -723 -835 -955 -245 -204 -538 -375 -775 -454 -168 -56 -281 -74 -422 -68 -214 10 -378 55 -615 172 -319 156 -631 407 -934 750 -625 707 -1156 1736 -1475 2860 -63 223 -81 312 -66 330 11 13 69 15 367 15 351 0 393 4 393 34 0 7 -27 83 -60 170 -108 282 -165 504 -191 736 -8 70 -12 225 -12 393 l2 278 -23 9 c-12 4 -75 15 -140 23 -66 9 -128 23 -141 31 -39 26 -84 209 -131 538 -25 177 -31 741 -9 977 26 290 81 551 176 836 244 731 753 1382 1368 1749 139 82 385 203 521 256 248 95 601 180 830 199 52 5 97 9 100 10 3 0 79 -4 169 -10z"/>
<path d="M3318 6554 c-27 -8 -48 -19 -48 -24 0 -4 24 -13 53 -18 55 -9 81 4 75 38 -4 20 -25 21 -80 4z"/>
<path d="M8612 6538 c3 -35 7 -36 86 -23 46 8 40 22 -20 40 -69 20 -70 20 -66 -17z"/>
<path d="M4780 5863 c-272 -24 -488 -198 -566 -458 -28 -91 -25 -288 5 -375 68 -197 224 -352 416 -413 100 -31 280 -31 380 0 196 62 356 222 418 418 18 58 22 92 21 200 -1 116 -4 138 -29 205 -59 159 -176 291 -320 360 -100 48 -223 72 -325 63z m134 -385 c63 -19 131 -92 152 -164 53 -185 -60 -342 -251 -347 -35 -1 -67 2 -72 6 -4 5 -8 42 -8 82 0 45 -5 79 -12 86 -7 7 -38 14 -70 17 -32 2 -64 9 -70 14 -16 13 -17 89 -2 142 18 65 102 143 179 167 39 12 109 10 154 -3z"/>
<path d="M7040 5855 c-170 -47 -319 -168 -399 -325 -56 -109 -66 -155 -66 -295 1 -115 4 -138 27 -203 78 -216 249 -370 463 -417 98 -22 242 -16 335 14 188 60 344 216 411 411 32 94 33 285 2 385 -59 186 -209 344 -392 413 -55 21 -87 26 -196 28 -94 3 -145 0 -185 -11z m288 -384 c42 -21 76 -59 108 -121 27 -53 26 -182 -3 -235 -43 -82 -120 -128 -229 -140 -80 -9 -99 7 -90 76 12 90 -13 119 -103 119 -21 0 -42 5 -49 12 -18 18 -14 117 7 163 60 129 233 190 359 126z"/>
<path d="M3232 4718 c6 -17 724 -378 754 -378 22 0 -57 114 -226 328 -24 30 -30 32 -120 41 -52 5 -166 13 -254 16 -129 5 -157 4 -154 -7z"/>
<path d="M8540 4719 c-231 -12 -253 -16 -282 -47 -57 -61 -250 -326 -240 -330 23 -7 772 359 772 378 0 11 -21 11 -250 -1z"/>
</g>
<g id="layer107" fill="#d9a171" stroke="none">
<path d="M5185 10731 c-221 -60 -555 -230 -830 -425 -178 -125 -502 -444 -636 -626 -247 -334 -431 -721 -568 -1192 -84 -287 -106 -505 -106 -1043 0 -347 3 -428 18 -524 22 -136 64 -321 78 -337 13 -15 38 -9 329 76 129 38 274 79 321 90 l86 22 179 -41 c98 -22 277 -60 396 -85 l218 -45 112 45 c62 25 196 80 298 121 573 233 904 363 924 363 22 0 115 -35 906 -342 l464 -181 126 27 c427 91 648 136 677 136 17 0 128 -31 245 -69 219 -71 361 -111 397 -111 22 0 30 21 56 148 15 72 16 71 -54 477 -56 325 -116 561 -223 870 -71 208 -111 304 -198 480 -107 217 -242 448 -324 555 -23 30 -67 93 -98 140 -31 47 -75 105 -98 130 -24 25 -107 122 -186 215 -131 157 -293 316 -429 423 -80 63 -490 314 -610 374 -199 100 -409 174 -674 239 -91 22 -220 56 -286 76 -110 33 -132 36 -265 38 -131 2 -155 0 -245 -24z"/>
<path d="M3023 4613 c7 -57 97 -372 166 -580 127 -386 454 -1101 689 -1508 118 -204 369 -554 524 -730 380 -431 807 -743 1213 -888 273 -97 516 -95 804 5 361 125 844 477 1171 853 541 622 1078 1683 1356 2680 46 166 53 215 31 215 -23 0 -249 -86 -347 -132 -52 -25 -221 -106 -375 -180 -325 -158 -452 -208 -524 -208 -57 0 -223 31 -696 130 -187 39 -351 73 -365 76 -20 4 -73 -28 -270 -165 -135 -94 -268 -181 -297 -196 -55 -27 -113 -32 -160 -14 -15 5 -152 93 -304 195 l-276 186 -309 -66 c-475 -101 -799 -166 -822 -166 -12 0 -165 72 -341 160 -434 216 -617 301 -740 344 -136 47 -135 47 -128 -11z"/>
</g>
<g id="layer108" fill="#fcca97" stroke="none">
<path d="M5335 10744 c-55 -6 -104 -9 -108 -6 -4 2 -14 -1 -21 -7 -8 -7 -18 -11 -22 -10 -5 1 -18 -1 -29 -6 -11 -4 -60 -24 -110 -43 -49 -19 -107 -43 -128 -54 -21 -10 -42 -16 -47 -13 -6 3 -10 1 -10 -5 0 -6 -10 -14 -22 -19 -80 -31 -445 -254 -535 -327 -23 -19 -44 -34 -47 -34 -4 0 -20 -16 -37 -35 -17 -19 -34 -35 -38 -35 -6 0 -341 -330 -341 -337 0 -2 -27 -35 -60 -75 -73 -86 -190 -260 -258 -383 -28 -49 -57 -98 -66 -107 -9 -10 -16 -23 -16 -28 0 -6 -9 -23 -21 -39 -11 -15 -22 -39 -24 -52 -2 -13 -22 -67 -45 -119 -57 -127 -131 -330 -170 -465 -18 -60 -36 -114 -40 -119 -5 -5 -6 -14 -4 -21 3 -7 1 -16 -5 -19 -6 -4 -8 -13 -5 -20 3 -8 1 -17 -5 -20 -6 -4 -8 -13 -5 -20 3 -8 1 -17 -5 -21 -6 -3 -8 -17 -5 -30 3 -12 1 -26 -6 -30 -6 -4 -8 -16 -5 -26 4 -11 1 -26 -5 -34 -7 -8 -9 -26 -6 -39 3 -14 1 -28 -5 -32 -7 -4 -9 -22 -6 -45 3 -22 1 -42 -5 -45 -6 -4 -8 -28 -5 -60 3 -33 1 -56 -5 -60 -7 -5 -9 -36 -5 -90 4 -49 2 -86 -4 -89 -12 -8 -12 -562 1 -570 6 -3 7 -30 3 -65 -4 -39 -2 -64 6 -73 6 -8 8 -27 5 -46 -4 -18 -2 -37 6 -45 6 -9 9 -24 5 -36 -4 -12 -1 -27 5 -35 6 -8 9 -19 5 -25 -4 -6 -1 -18 6 -26 6 -8 9 -17 6 -21 -4 -3 -2 -12 4 -19 6 -8 9 -20 6 -29 -4 -8 -2 -17 4 -21 6 -3 8 -12 5 -19 -2 -7 0 -17 5 -22 6 -6 11 -26 12 -46 2 -31 6 -36 30 -40 15 -2 30 0 33 5 4 5 12 7 20 4 7 -3 16 -1 19 5 4 5 12 9 18 8 7 -1 25 3 41 10 16 6 31 9 34 6 3 -2 10 -1 16 4 11 9 147 52 176 56 8 1 29 8 45 14 17 7 41 14 55 16 14 2 27 5 30 6 3 1 10 3 15 4 6 1 23 7 38 14 16 6 32 9 37 6 5 -3 12 0 15 6 4 5 13 8 21 5 7 -3 16 -1 20 5 3 6 12 8 20 5 7 -3 16 -1 19 4 10 16 159 -3 171 -21 3 -5 10 -7 15 -3 5 3 16 1 23 -5 7 -6 20 -9 29 -5 8 3 18 0 22 -5 3 -6 11 -9 16 -5 5 3 16 1 23 -5 7 -6 20 -9 29 -5 8 3 18 1 21 -5 4 -6 13 -8 21 -4 9 3 21 0 29 -6 7 -6 16 -8 19 -4 4 3 13 1 20 -6 8 -6 21 -9 30 -5 8 3 18 1 21 -4 3 -6 15 -8 25 -5 10 3 22 0 25 -5 3 -6 15 -8 25 -5 10 3 22 0 25 -6 4 -5 13 -8 21 -4 9 3 21 0 29 -6 7 -6 16 -8 19 -4 4 3 13 0 21 -6 8 -7 20 -10 26 -6 6 4 17 2 24 -4 7 -6 20 -9 29 -5 8 3 17 1 20 -4 10 -15 70 -4 146 28 41 16 76 28 79 25 3 -3 12 1 21 8 18 16 98 49 123 52 9 0 22 6 30 12 20 16 390 164 396 158 3 -3 12 1 21 9 17 14 515 217 541 220 9 1 20 5 25 8 12 7 403 -138 426 -158 9 -8 18 -12 21 -9 5 6 849 -319 911 -350 22 -11 33 -12 43 -4 8 6 20 9 29 6 8 -4 17 -1 21 4 3 6 15 9 25 6 10 -3 22 -1 25 5 3 5 12 7 20 4 7 -3 16 0 20 5 3 6 15 9 25 6 10 -3 22 -1 25 5 3 5 13 7 21 4 9 -4 22 -1 30 5 7 7 16 9 20 6 3 -4 12 -2 19 4 8 6 20 9 29 6 8 -4 17 -2 21 4 3 6 13 8 21 5 9 -4 22 -1 29 5 7 6 18 8 24 4 6 -4 18 -1 26 6 8 6 17 9 21 6 3 -4 12 -2 19 4 8 6 20 9 29 6 8 -4 17 -1 21 4 3 6 15 9 25 6 10 -3 22 -1 25 5 3 5 13 7 21 4 9 -4 22 -1 29 5 7 6 18 8 24 4 6 -4 18 -1 26 6 8 6 17 9 21 6 3 -4 12 -2 19 4 8 6 21 8 30 5 9 -4 22 -1 30 5 10 8 68 -7 230 -60 119 -39 220 -71 224 -71 5 0 21 -5 37 -12 15 -6 31 -11 35 -10 4 1 20 -3 35 -10 15 -6 33 -10 40 -9 6 1 14 -3 18 -9 3 -5 17 -10 31 -10 14 0 23 4 20 9 -4 5 -1 22 5 38 7 15 11 35 10 45 -1 9 3 19 9 23 6 3 8 11 5 16 -4 5 -3 15 2 22 4 6 6 39 5 72 -5 101 -100 629 -147 823 -68 272 -208 667 -319 897 -96 198 -248 461 -320 555 -24 30 -69 95 -101 144 -32 49 -86 119 -120 155 -34 36 -116 132 -182 212 -109 131 -249 270 -403 401 -70 59 -489 322 -610 383 -199 100 -449 189 -705 250 -81 19 -195 49 -254 66 -155 46 -254 57 -376 43z"/>
<path d="M5936 6770 c-72 -77 -158 -217 -261 -425 -139 -279 -182 -428 -137 -467 30 -27 154 -85 237 -111 131 -41 233 -53 323 -38 137 22 311 89 391 149 31 23 33 28 28 66 -17 119 -318 693 -434 825 -60 68 -84 68 -147 1z"/>
<path d="M3020 4636 c0 -14 5 -28 11 -31 6 -4 8 -13 5 -21 -3 -7 -1 -16 5 -20 6 -3 8 -12 5 -20 -3 -7 -1 -16 5 -20 6 -3 8 -12 5 -20 -3 -7 -1 -16 5 -19 5 -4 9 -12 8 -18 -1 -7 3 -25 9 -40 7 -15 11 -31 10 -35 -1 -4 4 -20 11 -37 7 -16 14 -39 15 -50 2 -11 9 -33 15 -50 7 -16 14 -39 16 -50 1 -11 5 -27 9 -35 17 -42 109 -317 110 -332 1 -9 7 -22 13 -30 18 -22 73 -159 68 -168 -3 -5 0 -12 6 -15 14 -9 51 -96 44 -103 -3 -3 2 -14 12 -24 9 -10 17 -26 18 -36 0 -9 9 -29 19 -44 10 -15 15 -31 12 -36 -3 -5 3 -20 13 -33 25 -33 92 -179 86 -189 -3 -5 -1 -12 5 -15 13 -8 140 -260 140 -278 0 -26 204 -398 222 -405 5 -2 15 -20 23 -39 37 -88 362 -532 435 -593 27 -23 50 -46 50 -51 0 -6 27 -35 60 -66 33 -30 60 -61 60 -67 0 -15 72 -86 87 -86 6 0 36 -27 66 -60 31 -33 60 -60 66 -60 5 0 21 -13 34 -30 14 -16 30 -30 36 -30 6 0 16 -9 23 -20 7 -11 18 -20 23 -20 6 0 28 -16 49 -35 21 -19 40 -35 43 -35 2 0 40 -25 84 -56 112 -78 243 -159 315 -193 34 -16 64 -34 68 -40 4 -6 11 -9 16 -6 4 3 32 -6 61 -19 30 -13 86 -33 124 -46 39 -12 75 -27 81 -31 6 -5 14 -6 17 -2 4 3 13 0 21 -6 8 -7 20 -10 26 -6 6 4 17 1 25 -5 8 -6 19 -9 25 -5 6 4 17 1 25 -5 9 -8 29 -9 54 -5 24 4 41 2 46 -4 8 -14 72 -14 80 -1 4 7 24 8 50 5 27 -5 45 -3 50 4 4 7 16 9 26 6 11 -4 27 -1 35 6 8 6 17 9 21 6 3 -4 12 -2 19 3 6 6 16 10 20 9 5 -1 16 0 24 4 48 18 83 26 92 21 5 -3 17 1 26 9 17 14 86 41 108 42 6 0 18 5 25 11 24 20 158 84 174 84 8 0 15 4 15 8 0 5 43 35 95 67 52 32 133 87 180 122 47 35 88 63 91 63 3 0 15 11 26 25 11 14 24 25 30 25 5 0 19 11 30 25 11 14 24 25 29 25 6 0 22 14 36 30 13 17 28 30 33 30 10 0 290 282 290 292 0 4 16 20 35 35 19 15 35 33 35 38 0 6 18 30 40 54 22 24 40 45 40 47 0 2 38 55 84 116 87 118 223 322 296 446 23 39 46 72 51 72 5 0 9 9 9 20 0 11 8 28 19 39 10 10 21 30 25 45 3 14 15 35 26 46 11 11 20 25 20 30 0 16 68 148 78 152 14 5 82 145 75 152 -4 3 3 15 15 27 13 11 20 24 17 28 -6 10 89 216 104 225 6 4 8 12 6 19 -3 7 5 28 17 47 12 19 22 42 23 50 4 26 66 174 81 191 8 9 12 18 9 21 -3 3 7 39 24 80 16 41 59 159 95 264 37 104 69 196 73 204 3 8 7 22 8 30 3 24 27 94 36 106 5 6 6 13 4 16 -3 3 0 18 6 34 7 16 12 32 11 36 -1 4 3 20 10 35 6 15 10 33 9 40 -1 6 3 14 8 18 6 3 8 12 5 19 -3 8 -1 17 5 20 6 4 8 13 5 20 -3 8 -1 17 5 21 11 6 16 55 6 55 -3 0 -13 -5 -23 -10 -26 -15 -234 -91 -260 -95 -13 -2 -31 -10 -40 -18 -26 -23 -162 -88 -171 -82 -5 2 -19 -3 -32 -14 -31 -23 -346 -182 -356 -179 -4 1 -21 -6 -36 -17 -16 -10 -37 -19 -47 -20 -10 -1 -24 -6 -32 -12 -15 -13 -164 -74 -176 -72 -4 1 -10 0 -14 -1 -21 -5 -136 -2 -146 4 -7 4 -21 5 -31 1 -11 -3 -22 -1 -26 5 -3 5 -17 7 -30 4 -12 -3 -26 -1 -30 6 -4 6 -15 8 -25 5 -10 -3 -21 -1 -25 5 -4 6 -15 8 -25 5 -10 -3 -21 -1 -25 5 -4 6 -15 8 -25 5 -10 -3 -21 -1 -25 5 -4 6 -15 8 -25 5 -10 -3 -21 -1 -25 5 -4 6 -15 8 -25 5 -10 -3 -21 -1 -25 5 -4 6 -15 8 -25 5 -10 -3 -21 -1 -25 5 -4 6 -15 8 -25 5 -10 -3 -21 -1 -25 5 -4 6 -15 8 -25 5 -10 -3 -21 -1 -24 4 -4 6 -13 8 -21 4 -9 -3 -21 0 -29 6 -7 6 -16 8 -19 4 -4 -3 -13 0 -21 6 -8 7 -20 10 -26 6 -6 -4 -17 -2 -24 4 -7 6 -20 9 -29 5 -8 -3 -18 -1 -21 5 -4 6 -13 8 -21 4 -9 -3 -21 0 -29 6 -7 6 -16 8 -19 4 -4 -3 -13 0 -21 6 -8 7 -20 10 -26 6 -6 -4 -17 -2 -24 4 -7 6 -20 9 -29 5 -8 -3 -18 0 -22 5 -3 6 -11 9 -16 5 -5 -3 -15 -1 -22 4 -14 11 -67 9 -88 -3 -8 -5 -86 -59 -174 -120 -88 -62 -189 -132 -225 -157 -134 -93 -217 -114 -305 -78 -23 10 -158 96 -301 192 -263 178 -290 191 -332 164 -7 -4 -16 -5 -19 -2 -3 3 -12 1 -19 -5 -8 -6 -20 -9 -29 -6 -8 4 -17 2 -21 -4 -3 -6 -13 -8 -21 -5 -9 4 -22 1 -29 -5 -7 -6 -18 -8 -24 -4 -6 4 -18 1 -26 -6 -8 -6 -17 -9 -21 -6 -3 4 -12 2 -19 -4 -8 -6 -20 -9 -29 -6 -8 4 -17 2 -21 -4 -3 -6 -13 -8 -21 -5 -9 4 -22 1 -29 -5 -7 -6 -18 -8 -24 -4 -6 4 -17 1 -25 -5 -8 -6 -19 -9 -24 -6 -5 4 -13 2 -16 -4 -4 -6 -15 -8 -25 -5 -10 3 -21 1 -25 -5 -4 -6 -15 -8 -25 -5 -10 3 -21 1 -25 -5 -4 -6 -15 -8 -25 -5 -10 3 -21 1 -25 -5 -4 -6 -14 -9 -22 -6 -9 4 -22 1 -29 -5 -7 -6 -18 -8 -24 -4 -6 4 -18 1 -26 -6 -8 -6 -17 -9 -21 -6 -3 4 -12 2 -19 -4 -8 -6 -20 -9 -29 -6 -8 4 -17 2 -21 -4 -3 -6 -13 -8 -21 -5 -9 4 -22 1 -29 -5 -7 -6 -18 -8 -24 -4 -6 4 -17 1 -25 -5 -8 -6 -19 -9 -25 -5 -6 4 -17 1 -25 -5 -8 -6 -19 -9 -25 -5 -6 4 -17 1 -25 -5 -8 -6 -19 -9 -24 -6 -5 4 -12 2 -15 -3 -3 -5 -27 -8 -53 -6 -48 2 -145 48 -468 220 -55 29 -103 51 -107 49 -9 -6 -210 95 -262 130 -21 14 -43 23 -50 20 -7 -3 -30 7 -51 22 -21 14 -50 27 -64 29 -33 4 -173 54 -185 66 -18 17 -36 9 -36 -15z"/>
</g>
<g id="layer109" fill="#c5cbcc" stroke="none">
<path d="M5750 11095 c-164 -17 -445 -81 -645 -147 -175 -58 -506 -217 -694 -333 -281 -174 -609 -479 -827 -770 -313 -416 -547 -957 -643 -1487 -42 -229 -53 -430 -48 -855 5 -399 9 -455 51 -693 45 -256 72 -334 120 -354 18 -7 76 -19 131 -25 54 -6 109 -17 122 -24 l23 -12 4 -295 c7 -485 39 -658 200 -1083 21 -53 36 -107 34 -120 l-3 -22 -354 -3 c-241 -1 -359 -6 -368 -13 -28 -24 -5 -194 51 -379 319 -1058 704 -1866 1219 -2554 424 -567 858 -944 1317 -1143 222 -96 325 -117 575 -117 212 -1 228 2 410 61 164 53 488 228 649 351 530 402 1030 1049 1431 1852 190 380 292 618 428 1000 116 326 256 808 257 887 0 57 -7 58 -393 59 -232 0 -351 4 -358 11 -12 12 4 65 64 218 44 113 59 163 92 299 62 255 68 316 70 664 1 215 5 326 12 333 16 16 129 38 195 39 127 0 139 20 187 305 51 307 71 539 71 850 0 592 -90 1073 -285 1521 -217 500 -506 900 -885 1228 -228 197 -399 309 -701 455 -190 92 -310 138 -509 196 -230 66 -362 89 -588 105 -186 12 -250 11 -412 -5z m369 -26 c255 -16 454 -55 721 -141 973 -314 1713 -1055 2065 -2068 74 -214 140 -523 172 -802 21 -187 24 -711 5 -888 -28 -264 -88 -615 -112 -659 -13 -25 -57 -38 -150 -45 -41 -3 -100 -11 -131 -17 l-57 -11 2 -312 c1 -256 -2 -331 -17 -426 -38 -244 -80 -394 -202 -728 -30 -80 -35 -106 -26 -115 9 -9 104 -12 364 -13 194 -1 362 -4 375 -8 33 -11 29 -37 -33 -262 -103 -371 -200 -659 -337 -999 -102 -255 -336 -741 -468 -971 -119 -209 -352 -562 -475 -719 -260 -335 -584 -655 -830 -823 -289 -196 -555 -316 -797 -358 -106 -19 -292 -14 -415 10 -196 39 -460 156 -668 294 -176 117 -320 237 -496 412 -578 576 -1086 1419 -1453 2417 -123 331 -260 785 -281 926 -12 81 -31 77 374 77 281 0 361 3 375 13 18 13 16 19 -27 128 -69 177 -145 419 -172 553 -40 199 -48 313 -48 618 l1 287 -67 10 c-36 7 -98 15 -137 20 -87 11 -112 23 -130 66 -32 76 -96 433 -114 635 -15 174 -12 672 5 867 73 804 422 1566 966 2112 318 320 606 511 1049 699 242 102 634 201 876 221 54 5 106 9 114 10 8 0 89 -4 179 -10z"/>
<path d="M3345 6540 c-17 -7 -17 -9 -2 -9 9 -1 20 -1 24 -2 4 0 9 4 11 10 4 13 -5 13 -33 1z"/>
<path d="M8630 6535 c0 -17 9 -19 28 -6 11 7 10 10 -3 15 -23 9 -25 8 -25 -9z"/>
<path d="M4746 5848 c-141 -15 -270 -81 -373 -192 -71 -76 -114 -148 -145 -247 -31 -99 -31 -273 -1 -366 71 -218 252 -383 468 -428 405 -85 776 236 752 650 -10 164 -74 300 -194 416 -137 133 -304 187 -507 167z m205 -376 c115 -59 169 -211 124 -343 -33 -98 -124 -163 -242 -175 -49 -5 -68 -3 -87 10 -23 14 -25 23 -28 93 l-3 78 -65 8 c-36 4 -71 14 -79 22 -8 8 -14 33 -15 57 -3 157 117 275 280 277 49 1 73 -5 115 -27z"/>
<path d="M7052 5846 c-140 -34 -288 -142 -372 -271 -116 -178 -130 -414 -37 -610 187 -390 696 -476 1003 -169 74 73 136 180 165 284 20 69 17 253 -5 325 -51 172 -175 321 -326 393 -47 22 -109 45 -138 51 -70 14 -224 13 -290 -3z m290 -369 c105 -61 155 -213 113 -338 -35 -102 -127 -166 -251 -175 -39 -3 -75 -1 -84 5 -11 7 -16 35 -20 93 l-5 83 -63 6 c-78 7 -97 24 -97 82 1 127 76 226 205 268 49 16 155 4 202 -24z"/>
<path d="M3290 4699 c62 -42 648 -324 657 -315 10 9 -210 288 -235 297 -13 5 -110 14 -216 19 -240 12 -225 12 -206 -1z"/>
<path d="M8520 4699 c-225 -12 -232 -13 -267 -57 -99 -123 -193 -257 -184 -260 12 -4 661 313 661 322 0 3 -12 5 -27 5 -16 -1 -98 -6 -183 -10z"/>
</g>
<g id="layer110" fill="#faf6ab" stroke="none">
<path d="M5970 6797 c-14 -7 -31 -25 -38 -40 -8 -16 -20 -31 -28 -34 -8 -3 -14 -9 -14 -14 0 -4 -24 -46 -54 -91 -29 -46 -63 -102 -75 -125 -12 -24 -26 -43 -31 -43 -6 0 -10 -7 -10 -15 0 -20 -66 -151 -80 -160 -6 -3 -8 -10 -5 -15 3 -4 -8 -36 -24 -71 -15 -35 -38 -95 -51 -134 -12 -38 -26 -74 -31 -80 -5 -5 -9 -21 -9 -35 0 -44 63 -91 187 -138 26 -11 57 -22 68 -27 11 -4 33 -9 49 -11 16 -2 34 -9 41 -14 7 -5 15 -7 18 -3 4 3 13 0 21 -6 8 -7 24 -10 35 -6 10 3 22 1 26 -5 8 -13 92 -13 101 1 3 6 17 8 29 5 13 -3 27 -1 30 5 4 6 14 8 22 5 9 -4 21 -1 29 4 7 6 23 13 36 14 13 2 32 7 43 11 155 61 205 87 244 129 23 24 23 27 8 58 -8 18 -18 44 -22 58 -4 14 -25 60 -46 103 -22 42 -37 81 -34 86 3 6 -3 18 -14 28 -21 21 -85 144 -95 186 -3 15 -10 27 -15 27 -11 0 -81 125 -81 145 0 8 -4 15 -9 15 -8 0 -101 132 -113 163 -7 17 -46 37 -71 37 -7 0 -23 -6 -37 -13z"/>
</g>
<g id="layer111" fill="#f6f7f8" stroke="none">
<path d="M5780 11095 c-239 -25 -570 -107 -794 -197 -319 -129 -596 -286 -825 -469 -599 -478 -1016 -1160 -1190 -1949 -68 -311 -84 -509 -78 -980 4 -320 8 -395 26 -510 12 -74 26 -160 31 -190 20 -129 52 -255 77 -303 18 -36 45 -45 177 -63 59 -8 115 -18 123 -22 12 -7 15 -57 18 -293 5 -472 41 -668 202 -1096 25 -67 43 -129 40 -138 -6 -13 -52 -15 -361 -15 l-355 0 -15 -22 c-21 -29 -20 -55 4 -169 30 -139 51 -213 160 -544 351 -1074 849 -1971 1467 -2638 345 -373 757 -657 1119 -772 145 -47 230 -59 409 -59 153 0 181 2 279 27 116 29 248 78 357 132 96 49 343 199 413 253 196 148 460 402 634 610 293 352 568 772 775 1187 243 488 363 775 516 1234 91 272 205 693 195 723 -12 39 -46 43 -374 43 -399 1 -380 0 -380 26 0 11 22 80 50 152 56 151 81 230 105 337 9 41 21 89 26 105 4 17 18 89 31 160 20 115 22 165 23 437 0 191 4 311 10 316 16 15 110 32 178 32 78 0 126 23 149 70 15 32 61 268 88 450 52 366 51 896 -5 1270 -109 744 -428 1405 -919 1908 -279 286 -510 457 -851 629 -385 195 -779 306 -1180 333 -179 12 -194 11 -355 -5z m396 -25 c757 -60 1547 -457 2050 -1031 428 -487 701 -1056 813 -1689 48 -274 56 -378 56 -755 -1 -424 -13 -565 -86 -945 -26 -140 -39 -168 -81 -173 -18 -3 -89 -12 -157 -21 -68 -9 -127 -19 -131 -21 -4 -3 -5 -127 -2 -277 5 -314 -6 -439 -64 -697 -32 -144 -49 -199 -151 -484 -30 -86 -35 -109 -24 -116 25 -16 155 -21 401 -16 285 5 354 0 358 -30 3 -25 -89 -362 -163 -600 -268 -850 -676 -1670 -1135 -2280 -157 -208 -253 -319 -440 -506 -201 -201 -341 -316 -525 -432 -259 -162 -469 -253 -680 -292 -109 -21 -349 -16 -463 9 -276 60 -591 225 -887 462 -209 168 -502 481 -712 759 -499 663 -935 1575 -1208 2526 -62 215 -78 290 -73 339 l3 35 367 5 c405 6 402 5 379 63 -104 262 -182 515 -212 686 -27 158 -42 431 -37 648 4 128 2 185 -6 191 -13 11 -106 29 -196 38 -85 9 -114 24 -133 73 -20 48 -72 316 -92 466 -49 376 -40 954 21 1312 63 374 219 815 402 1138 143 252 308 471 511 679 269 274 459 417 776 582 256 134 470 214 760 285 298 72 493 90 761 69z"/>
<path d="M7070 5844 c-172 -37 -339 -170 -418 -334 -41 -83 -72 -204 -72 -275 0 -70 32 -191 72 -274 31 -66 57 -101 117 -161 100 -100 204 -154 343 -178 89 -15 102 -15 189 1 134 23 240 78 334 171 126 125 188 270 187 441 -1 180 -56 310 -187 441 -60 60 -99 89 -156 117 -131 64 -270 81 -409 51z m271 -361 c104 -56 161 -204 125 -325 -36 -124 -134 -197 -271 -201 -59 -2 -69 1 -86 22 -16 20 -18 33 -13 86 6 57 5 64 -14 74 -11 6 -42 11 -68 11 -67 0 -84 18 -84 89 1 31 7 73 14 94 56 155 252 230 397 150z"/>
<path d="M4705 5840 c-125 -27 -239 -93 -333 -194 -230 -247 -221 -621 22 -861 85 -84 200 -146 318 -169 97 -20 130 -20 226 0 256 52 447 247 498 508 15 77 16 100 5 173 -23 161 -80 272 -197 384 -70 67 -134 106 -234 141 -62 22 -239 33 -305 18z m250 -360 c89 -43 151 -163 142 -275 -12 -154 -125 -255 -284 -255 -92 0 -105 14 -96 103 7 73 -6 87 -79 87 -74 0 -92 23 -86 111 4 53 12 80 34 116 79 126 239 176 369 113z"/>
</g>


</svg>